<svg xmlns="http://www.w3.org/2000/svg"  viewBox="0 0 80 80" width="80px" height="80px"><path fill="#f5c276" d="M6.728,75.5C5.5,75.5,4.5,74.481,4.5,73.23V6.77c0-1.251,1-2.27,2.228-2.27h20.965 C27.563,5.01,27.5,5.505,27.5,6c0,3.584,2.916,6.5,6.5,6.5s6.5-2.916,6.5-6.5c0-0.495-0.063-0.99-0.192-1.5h20.965 C62.5,4.5,63.5,5.519,63.5,6.77V73.23c0,1.251-1,2.27-2.228,2.27H6.728z"/><path fill="#c29653" d="M61.273,5C62.225,5,63,5.794,63,6.769v66.462C63,74.206,62.225,75,61.273,75H6.727 C5.775,75,5,74.206,5,73.231V6.769C5,5.794,5.775,5,6.727,5h20.352C27.026,5.335,27,5.667,27,6c0,3.86,3.14,7,7,7s7-3.14,7-7 c0-0.333-0.026-0.665-0.079-1H61.273 M61.273,4h-21.64C39.856,4.628,40,5.295,40,6c0,3.314-2.686,6-6,6s-6-2.686-6-6 c0-0.705,0.144-1.372,0.367-2H6.727C5.221,4,4,5.24,4,6.769v66.462C4,74.76,5.221,76,6.727,76h54.545C62.779,76,64,74.76,64,73.231 V6.769C64,5.24,62.779,4,61.273,4L61.273,4z"/><path fill="#fff" d="M12 12H56V68H12z"/><path fill="#66798f" d="M38.578,4c0.45,1.029,0.578,2.232,0.197,3.494c-0.494,1.639-1.873,2.958-3.538,3.358 C31.94,11.642,29,9.164,29,6c0-0.712,0.154-1.387,0.422-2H20v8c0,2.209,1.791,4,4,4h20c2.209,0,4-1.791,4-4V4H38.578z"/><path fill="#66798f" d="M34,2c2.206,0,4,1.794,4,4s-1.794,4-4,4s-4-1.794-4-4S31.794,2,34,2 M34,0c-3.314,0-6,2.686-6,6 s2.686,6,6,6s6-2.686,6-6S37.314,0,34,0L34,0z"/><path fill="#bae0bd" d="M24 24.5A7.5 7.5 0 1 0 24 39.5A7.5 7.5 0 1 0 24 24.5Z"/><path fill="#5e9c76" d="M24,25c3.86,0,7,3.14,7,7s-3.14,7-7,7s-7-3.14-7-7S20.14,25,24,25 M24,24c-4.418,0-8,3.582-8,8 s3.582,8,8,8s8-3.582,8-8S28.418,24,24,24L24,24z"/><path fill="#f78f8f" d="M17.5 50.5H19.5V62.5H17.5z"/><path fill="#c74343" d="M19,51v11h-1V51H19 M20,50h-3v13h3V50L20,50z"/><path fill="#f78f8f" d="M27.5 53.5H29.5V62.5H27.5z"/><path fill="#c74343" d="M29,54v8h-1v-8H29 M30,53h-3v10h3V53L30,53z"/><path fill="#8bb7f0" d="M22.5 55.5H24.5V62.5H22.5z"/><path fill="#4e7ab5" d="M24,56v6h-1v-6H24 M25,55h-3v8h3V55L25,55z"/><path fill="#b0c1d4" d="M42,77.5c-1.93,0-3.5-1.57-3.5-3.5V32c0-1.93,1.57-3.5,3.5-3.5h30c1.93,0,3.5,1.57,3.5,3.5v42 c0,1.93-1.57,3.5-3.5,3.5H42z"/><path fill="#66798f" d="M72,29c1.654,0,3,1.346,3,3v42c0,1.654-1.346,3-3,3H42c-1.654,0-3-1.346-3-3V32c0-1.654,1.346-3,3-3 H72 M72,28H42c-2.209,0-4,1.791-4,4v42c0,2.209,1.791,4,4,4h30c2.209,0,4-1.791,4-4V32C76,29.791,74.209,28,72,28L72,28z"/><path fill="#d6dfeb" d="M39,45V32c0-1.657,1.343-3,3-3h30c1.657,0,3,1.343,3,3v13H39z"/><path fill="#bae0bd" d="M43.5 33.5H70.5V40.5H43.5z"/><path fill="#5e9c76" d="M70,34v6H44v-6H70 M71,33H43v8h28V33L71,33z"/><path fill="#fff" d="M59 51H63V55H59z"/><path fill="#ffeea3" d="M67 51H71V55H67z"/><path fill="#fff" d="M51 51H55V55H51zM43 51H47V55H43zM59 59H63V63H59z"/><path fill="#ffeea3" d="M67 59H71V63H67z"/><g><path fill="#fff" d="M51 59H55V63H51z"/></g><g><path fill="#fff" d="M43 59H47V63H43z"/></g><g><path fill="#fff" d="M59 67H63V71H59z"/></g><g><path fill="#f78f8f" d="M67 67H71V71H67z"/></g><g><path fill="#fff" d="M51 67H55V71H51z"/></g><g><path fill="#fff" d="M43 67H47V71H43z"/></g><g><path fill="#788b9c" d="M24.5,31.5v-6.983c3.738,0.247,6.736,3.246,6.983,6.983H24.5z"/><path fill="#36404d" d="M25,25.071c3.061,0.44,5.489,2.868,5.929,5.929H25V25.071 M24,24v8h8C32,27.582,28.418,24,24,24 L24,24z"/></g></svg>